<svg xmlns="http://www.w3.org/2000/svg" width="998" height="1000" viewBox="0 0 998 1000" version="1.1"><path d="M 470.452 603.076 C 469.037 605.318, 467.633 607.793, 467.332 608.576 C 467.032 609.359, 467.025 610, 467.318 610 C 467.610 610, 469.190 607.525, 470.829 604.500 C 472.467 601.475, 473.632 599, 473.416 599 C 473.201 599, 471.867 600.834, 470.452 603.076 M 747.500 619.611 C 743.650 621.559, 739.825 623.838, 739 624.676 C 738.175 625.513, 741.550 624.052, 746.500 621.429 C 751.450 618.806, 755.688 616.512, 755.917 616.330 C 756.146 616.149, 755.921 616.015, 755.417 616.034 C 754.913 616.053, 751.350 617.662, 747.500 619.611 M 366 646.320 C 366 646.716, 367.074 648.718, 368.387 650.770 C 369.699 652.821, 372.174 655.822, 373.887 657.437 C 375.599 659.052, 377 660.059, 377 659.673 C 377 659.287, 374.923 656.391, 372.383 653.236 C 369.844 650.081, 367.369 647.072, 366.883 646.550 C 366.398 646.028, 366 645.924, 366 646.320 M 714.783 650.750 C 713.944 651.712, 712.733 653.513, 712.093 654.750 C 711.360 656.168, 711.304 657, 711.941 657 C 712.498 657, 713.823 655.200, 714.886 653 C 715.949 650.800, 716.704 649, 716.564 649 C 716.424 649, 715.623 649.788, 714.783 650.750 M 513.300 654.562 C 511.210 657.072, 506.628 661.347, 503.118 664.062 C 499.608 666.778, 497.073 669, 497.484 669 C 497.896 669, 500.335 667.456, 502.905 665.570 C 505.475 663.683, 509.923 659.660, 512.789 656.630 C 515.655 653.599, 518 650.868, 518 650.560 C 518 650.252, 517.797 650, 517.550 650 C 517.302 650, 515.390 652.053, 513.300 654.562 M 468 670.955 C 468 671.545, 469.012 673.591, 470.250 675.502 C 471.488 677.412, 472.837 678.981, 473.250 678.988 C 473.663 678.994, 474 678.550, 474 678 C 474 677.450, 473.605 677, 473.121 677 C 472.638 677, 471.679 675.640, 470.991 673.979 C 470.303 672.317, 469.348 670.715, 468.870 670.420 C 468.391 670.124, 468 670.365, 468 670.955 M 416 684.422 C 417.375 685.159, 419.962 686.077, 421.750 686.461 C 423.538 686.845, 425 686.950, 425 686.695 C 425 686.439, 422.778 685.503, 420.062 684.615 C 417.346 683.727, 414.759 683.018, 414.312 683.040 C 413.865 683.062, 414.625 683.684, 416 684.422" stroke="none" fill="#1d1c1f" fill-rule="evenodd"/><path d="M 484.935 590.220 C 483.629 590.703, 481.036 592.260, 479.175 593.680 C 477.313 595.100, 474.550 598.217, 473.035 600.605 C 471.521 602.994, 469.969 604.636, 469.588 604.254 C 469.206 603.873, 469.178 604.300, 469.524 605.203 C 469.891 606.158, 469.390 607.632, 468.327 608.725 C 467.322 609.758, 466.379 611.706, 466.231 613.052 C 466.083 614.398, 465.288 616.005, 464.464 616.623 C 463.570 617.292, 463.233 618.444, 463.628 619.474 C 463.996 620.432, 463.752 621.535, 463.080 621.951 C 462.394 622.375, 461.614 626.059, 461.283 630.447 C 460.827 636.466, 461.009 638.413, 462.098 639.173 C 463.176 639.926, 463.211 640.269, 462.250 640.659 C 461.563 640.938, 461 642.847, 461 644.900 C 461 646.953, 461.476 651.303, 462.058 654.566 C 462.640 657.830, 464.091 663.063, 465.282 666.196 C 466.509 669.423, 467.753 671.400, 468.150 670.757 C 468.574 670.071, 469.548 671.081, 470.611 673.311 C 471.579 675.340, 472.737 677, 473.185 677 C 473.633 677, 474 677.378, 474 677.840 C 474 678.302, 471.597 679.257, 468.660 679.962 C 465.582 680.700, 457.005 681.252, 448.410 681.264 C 437.638 681.280, 431.835 680.831, 427.500 679.646 C 424.200 678.744, 420.600 677.825, 419.500 677.605 C 418.400 677.385, 415.475 676.454, 413 675.537 C 410.525 674.619, 405.196 672.217, 401.157 670.198 C 397.119 668.178, 390.975 664.184, 387.505 661.322 C 384.035 658.459, 378.564 652.982, 375.348 649.149 C 372.132 645.317, 367.633 638.428, 365.350 633.841 C 363.068 629.253, 360.459 623.700, 359.553 621.500 C 358.646 619.300, 357.543 616.825, 357.100 616 C 356.658 615.175, 355.386 614.364, 354.275 614.197 C 353.151 614.029, 351.990 614.583, 351.659 615.447 C 351.331 616.301, 351.322 617.675, 351.638 618.500 C 351.955 619.325, 352.568 620, 353 620 C 353.432 620, 354.054 620.698, 354.382 621.552 C 354.723 622.442, 354.555 622.843, 353.989 622.493 C 353.445 622.157, 353 622.064, 353 622.287 C 353 622.510, 353.647 623.999, 354.439 625.596 C 355.230 627.193, 356.354 629.765, 356.937 631.310 C 357.520 632.856, 358.400 633.871, 358.893 633.566 C 359.387 633.261, 360.057 633.707, 360.384 634.558 C 360.724 635.443, 360.555 635.843, 359.989 635.493 C 359.445 635.157, 359 635.307, 359 635.826 C 359 636.345, 360.160 637.530, 361.578 638.459 C 363.149 639.489, 363.935 640.726, 363.590 641.626 C 363.271 642.458, 363.455 642.837, 364.011 642.493 C 364.555 642.157, 365.053 642.471, 365.118 643.191 C 365.184 643.911, 365.162 645.070, 365.071 645.766 C 364.980 646.462, 365.345 646.912, 365.882 646.766 C 366.420 646.620, 369.141 649.315, 371.930 652.755 C 374.718 656.195, 377 659.426, 377 659.935 C 377 660.444, 379.587 663.177, 382.750 666.009 C 385.913 668.841, 391.200 672.694, 394.500 674.571 C 397.800 676.447, 402.952 679.146, 405.948 680.568 C 408.945 681.991, 412.320 683.184, 413.448 683.220 C 414.577 683.257, 417.525 683.959, 420 684.782 C 422.475 685.604, 425.465 686.223, 426.644 686.158 C 427.823 686.093, 429.304 686.662, 429.935 687.421 C 430.761 688.417, 432.816 688.687, 437.291 688.387 C 441.675 688.093, 442.912 688.249, 441.500 688.916 C 440.174 689.543, 443.994 689.732, 452.845 689.477 C 460.184 689.266, 467.609 688.663, 469.345 688.139 C 471.080 687.615, 473.924 686.938, 475.665 686.635 C 478.185 686.196, 479.613 686.708, 482.665 689.144 C 484.774 690.827, 489.200 693.607, 492.500 695.323 C 495.800 697.038, 500.975 699.287, 504 700.321 C 507.025 701.354, 512.650 702.830, 516.500 703.599 C 520.350 704.368, 527.100 704.990, 531.500 704.981 C 535.900 704.972, 543.325 704.321, 548 703.533 C 552.675 702.745, 559.200 701.394, 562.500 700.531 C 565.800 699.668, 569.625 698.548, 571 698.041 C 572.375 697.534, 578 695.470, 583.500 693.454 C 589 691.438, 603.175 684.968, 615 679.075 C 626.825 673.183, 639.544 666.721, 643.264 664.717 C 646.985 662.713, 654.240 659.496, 659.386 657.568 C 664.533 655.640, 670.714 653.405, 673.122 652.601 C 675.530 651.797, 681.100 650.387, 685.500 649.467 C 689.900 648.547, 698.658 647.549, 704.963 647.249 L 716.425 646.702 714.609 649.474 C 713.610 650.999, 713.289 651.939, 713.896 651.564 C 714.503 651.189, 715 651.388, 715 652.007 C 715 652.625, 714.534 654.002, 713.965 655.066 C 713.395 656.130, 712.307 657, 711.545 657 C 710.774 657, 709.486 659.104, 708.637 661.750 C 707.799 664.362, 706.549 669.995, 705.859 674.267 C 704.857 680.472, 704.854 683.761, 705.846 690.621 C 706.529 695.343, 707.969 701.073, 709.047 703.354 C 710.124 705.634, 712.787 709.576, 714.964 712.114 C 717.264 714.794, 721.348 717.937, 724.711 719.614 C 729.988 722.245, 731.429 722.500, 741 722.500 C 750.696 722.500, 752.007 722.260, 758.123 719.362 C 761.766 717.636, 766.560 714.585, 768.777 712.582 C 770.994 710.580, 773.832 706.817, 775.085 704.221 C 776.947 700.360, 777.372 697.769, 777.413 690 C 777.452 682.641, 776.953 679.010, 775.197 673.891 C 773.951 670.257, 771.676 665.307, 770.141 662.891 C 768.606 660.476, 765.234 656.475, 762.646 654 C 760.059 651.525, 755.817 648.266, 753.221 646.758 C 750.624 645.250, 745.575 643.077, 742 641.929 C 738.425 640.782, 734.825 639.623, 734 639.354 C 732.795 638.962, 732.893 638.650, 734.500 637.768 C 735.600 637.165, 736.725 636.341, 737 635.939 C 737.275 635.536, 741.100 632.994, 745.500 630.291 C 749.900 627.588, 755.075 624.788, 757 624.071 C 758.925 623.353, 761.850 622.180, 763.500 621.465 C 765.150 620.749, 768.300 619.478, 770.500 618.638 C 772.700 617.799, 777.667 616.196, 781.538 615.077 C 785.408 613.958, 793.058 612.162, 798.538 611.086 C 804.017 610.011, 812.100 608.572, 816.500 607.890 C 821.396 607.130, 835.171 606.641, 852 606.629 C 868.853 606.617, 882.597 607.086, 887.500 607.839 C 891.900 608.516, 897.525 609.476, 900 609.974 C 902.475 610.472, 907.511 611.434, 911.191 612.112 C 916.607 613.109, 918.178 613.097, 919.441 612.049 C 920.298 611.337, 921 609.676, 921 608.356 C 921 606.823, 920.188 605.607, 918.750 604.986 C 917.513 604.452, 913.800 603.562, 910.500 603.010 C 907.200 602.457, 900.225 601.366, 895 600.585 C 889.775 599.805, 879.430 598.614, 872.011 597.940 C 864.046 597.217, 852.579 596.955, 844.011 597.302 C 836.030 597.624, 824.100 598.605, 817.500 599.481 C 810.900 600.356, 800.100 602.163, 793.500 603.495 C 786.900 604.827, 778.800 606.805, 775.500 607.890 C 772.200 608.976, 767.025 610.814, 764 611.976 C 760.975 613.138, 757.718 614.345, 756.761 614.658 C 755.805 614.971, 755.240 615.579, 755.506 616.009 C 755.771 616.439, 755.275 617.064, 754.404 617.398 C 753.533 617.733, 752.298 617.708, 751.660 617.343 C 751.022 616.978, 750.836 617.050, 751.248 617.504 C 751.659 617.957, 747.609 620.749, 742.248 623.708 C 736.886 626.667, 730.475 631.048, 728 633.445 L 723.500 637.802 712 637.889 C 705.675 637.938, 698.025 638.235, 695 638.550 C 691.975 638.865, 687.250 639.613, 684.500 640.213 C 681.750 640.812, 675.675 642.399, 671 643.738 C 666.325 645.077, 661.712 646.411, 660.750 646.703 C 659.788 646.995, 659 647.657, 659 648.176 C 659 648.694, 658.550 648.840, 658 648.500 C 657.450 648.160, 657 648.385, 657 649 C 657 649.615, 656.530 649.828, 655.956 649.473 C 655.382 649.118, 653.694 649.636, 652.206 650.625 C 650.718 651.613, 648.993 652.504, 648.374 652.604 C 647.754 652.705, 646.292 653.090, 645.124 653.461 C 643.956 653.831, 643 654.540, 643 655.036 C 643 655.532, 642.329 655.680, 641.508 655.365 C 640.670 655.043, 639.758 655.468, 639.426 656.333 C 639.101 657.180, 638.201 657.630, 637.426 657.333 C 636.651 657.036, 635.741 657.512, 635.404 658.391 C 635.066 659.269, 634.388 659.740, 633.895 659.435 C 633.403 659.131, 633 659.385, 633 660 C 633 660.615, 632.550 660.840, 632 660.500 C 631.450 660.160, 631 660.385, 631 661 C 631 661.615, 630.550 661.840, 630 661.500 C 629.450 661.160, 629 661.318, 629 661.851 C 629 662.384, 624.050 665.316, 618 668.367 C 611.950 671.418, 607 673.678, 607 673.389 C 607 673.100, 605.763 673.735, 604.250 674.801 C 602.737 675.866, 600.375 677.075, 599 677.488 C 597.625 677.901, 592.772 679.980, 588.215 682.108 C 583.659 684.236, 579.609 685.909, 579.215 685.827 C 578.822 685.745, 577.150 686.249, 575.500 686.948 C 573.850 687.647, 569.125 689.074, 565 690.119 C 560.875 691.164, 554.125 692.751, 550 693.646 C 545.368 694.650, 537.911 695.265, 530.500 695.254 C 522.915 695.242, 516.476 694.677, 513 693.719 C 509.975 692.884, 505.628 691.548, 503.341 690.749 C 501.053 689.950, 497.192 688.131, 494.761 686.706 C 492.330 685.281, 489.759 683.414, 489.048 682.558 C 487.956 681.242, 488.046 680.997, 489.628 680.984 C 490.657 680.975, 493.300 679.880, 495.500 678.552 C 497.700 677.223, 501.075 675.355, 503 674.400 C 504.925 673.445, 510.411 668.677, 515.190 663.805 C 519.970 658.932, 524.639 653.496, 525.565 651.723 C 526.491 649.950, 527.884 647.297, 528.659 645.828 C 529.435 644.358, 530.728 640.623, 531.534 637.529 C 532.341 634.434, 533 628.956, 533 625.355 C 533 621.754, 532.265 616.280, 531.367 613.190 C 530.125 608.919, 528.406 606.180, 524.193 601.763 C 520.681 598.081, 516.264 594.778, 512.132 592.744 C 506.310 589.878, 504.635 589.524, 496.462 589.438 C 491.429 589.385, 486.242 589.736, 484.935 590.220 M 489.055 597.815 C 486.649 598.617, 483.012 601.046, 480.792 603.334 C 478.611 605.581, 476.011 609.019, 475.014 610.972 C 474.018 612.926, 472.197 617.833, 470.969 621.878 C 469.020 628.294, 468.803 630.713, 469.271 640.866 C 469.634 648.732, 470.447 654.297, 471.781 658.048 C 472.866 661.100, 474.696 665.445, 475.849 667.704 C 477.001 669.963, 479.067 672.694, 480.438 673.773 L 482.932 675.735 488.716 673.006 C 491.897 671.506, 496.228 669.470, 498.341 668.482 C 500.453 667.494, 505.547 663.494, 509.661 659.593 C 513.775 655.692, 517.254 651.677, 517.391 650.670 C 517.528 649.664, 518.195 648.497, 518.873 648.078 C 519.551 647.659, 519.969 646.683, 519.803 645.908 C 519.636 645.134, 520.096 644.624, 520.824 644.775 C 521.553 644.926, 521.878 644.611, 521.547 644.075 C 521.216 643.540, 521.857 640.393, 522.972 637.082 C 524.088 633.772, 524.997 628.686, 524.994 625.782 C 524.991 622.877, 524.490 618.700, 523.881 616.500 C 523.272 614.300, 521.937 611.324, 520.916 609.887 C 519.895 608.450, 519.274 607.060, 519.536 606.798 C 519.798 606.536, 518.997 605.461, 517.756 604.411 L 515.500 602.500 517.500 604.920 L 519.500 607.339 516.250 604.982 C 514.462 603.685, 513 602.457, 513 602.253 C 513 602.049, 513.563 602.168, 514.250 602.517 C 514.938 602.867, 514.413 602.198, 513.085 601.032 C 511.757 599.866, 510.070 599.143, 509.335 599.425 C 508.601 599.707, 508 599.598, 508 599.183 C 508 598.768, 507.212 598.369, 506.250 598.296 C 505.288 598.224, 501.992 597.763, 498.926 597.273 C 494.770 596.609, 492.259 596.747, 489.055 597.815 M 723.313 652.725 C 721.339 655.811, 718.558 661.074, 717.134 664.419 C 714.877 669.720, 714.542 671.922, 714.523 681.594 C 714.510 687.936, 714.992 693.719, 715.649 695.094 C 716.281 696.417, 717.353 698.974, 718.031 700.776 C 718.709 702.578, 721.476 706.041, 724.180 708.472 C 727.885 711.803, 730.217 713.060, 733.645 713.574 C 736.147 713.949, 741.084 713.960, 744.615 713.598 C 748.147 713.237, 752.266 712.411, 753.768 711.764 C 755.271 711.116, 758.354 709.348, 760.621 707.834 C 763.212 706.104, 765.532 703.401, 766.871 700.552 C 768.450 697.192, 769 694.088, 769 688.539 C 769 682.838, 768.439 679.800, 766.643 675.779 C 765.346 672.875, 762.469 668.101, 760.249 665.169 C 758.029 662.237, 755.153 659.095, 753.857 658.188 C 752.562 657.280, 748.629 655.066, 745.119 653.269 C 741.608 651.471, 739.358 649.993, 740.118 649.985 C 741.216 649.973, 741.192 649.768, 740 648.986 C 739.175 648.446, 737.375 648.234, 736 648.515 C 734.625 648.797, 732.016 648.596, 730.202 648.069 C 726.961 647.129, 726.841 647.209, 723.313 652.725" stroke="none" fill="#040404" fill-rule="evenodd"/></svg>