<svg xmlns="http://www.w3.org/2000/svg" width="1000" height="1000" viewBox="0 0 1000 1000" version="1.1"><path d="" stroke="none" fill="#080404" fill-rule="evenodd"/><path d="M 670.200 238.200 C 669.540 238.860, 669 239.955, 669 240.634 C 669 241.313, 678.034 250.318, 689.076 260.646 C 705.075 275.609, 709.052 279.837, 708.658 281.461 C 708.387 282.583, 707.254 286.875, 706.142 291 C 705.029 295.125, 703.793 299.625, 703.395 301 C 702.998 302.375, 699.483 308.587, 695.586 314.804 C 691.689 321.022, 686.813 328.829, 684.750 332.155 C 682.688 335.480, 681 339.281, 681 340.600 C 681 342.441, 681.538 343, 683.312 343 C 684.584 343, 687.487 342.100, 689.764 341 C 692.041 339.900, 694.375 339, 694.952 339 C 695.528 339, 696 340.095, 696 341.433 C 696 342.946, 696.719 344.094, 697.905 344.470 C 699.166 344.870, 705.168 342.315, 715.655 336.914 C 724.370 332.426, 737.800 325.491, 745.500 321.502 C 753.200 317.513, 766.700 310.541, 775.500 306.009 C 784.300 301.476, 799.825 293.462, 810 288.201 C 820.175 282.939, 834.350 275.621, 841.500 271.937 C 849.169 267.986, 854.636 264.556, 854.833 263.572 C 855.015 262.655, 854.684 261.324, 854.096 260.615 C 853.498 259.895, 848.503 258.789, 842.763 258.107 C 837.118 257.436, 829.350 256.477, 825.500 255.976 C 821.650 255.475, 814.788 254.600, 810.250 254.032 C 805.712 253.465, 798.399 252.559, 793.997 252.019 C 789.595 251.479, 782.058 250.556, 777.247 249.968 C 772.436 249.379, 765.350 248.490, 761.500 247.991 C 757.650 247.492, 750.225 246.585, 745 245.975 C 739.775 245.365, 732.575 244.477, 729 244 C 725.425 243.523, 718.450 242.641, 713.500 242.038 C 708.550 241.436, 697.525 240.059, 689 238.978 C 680.475 237.897, 673.028 237.010, 672.450 237.006 C 671.872 237.003, 670.860 237.540, 670.200 238.200 M 683 246.215 C 683.825 247.011, 691.140 253.850, 699.255 261.412 L 714.009 275.160 740.755 274.091 C 755.465 273.502, 772.016 272.783, 777.535 272.493 C 785.052 272.097, 788.032 272.303, 789.411 273.312 C 790.893 274.395, 791.040 275.056, 790.165 276.692 C 789.565 277.814, 787.601 279.008, 785.788 279.355 C 783.980 279.701, 780.475 280.439, 778 280.995 C 775.525 281.551, 771.250 282.453, 768.500 283 C 765.750 283.547, 761.475 284.447, 759 285 C 756.525 285.553, 752.250 286.448, 749.500 286.989 C 746.750 287.531, 740.225 288.899, 735 290.030 C 729.775 291.161, 723.541 292.355, 721.147 292.685 C 717.173 293.231, 716.488 293.772, 713.282 298.892 C 711.350 301.976, 707.491 308.100, 704.705 312.500 C 701.920 316.900, 698.102 322.893, 696.222 325.818 C 694.341 328.743, 692.969 331.303, 693.173 331.507 C 693.377 331.710, 694.884 331.259, 696.522 330.503 C 698.160 329.747, 702.875 327.574, 707 325.673 C 711.125 323.772, 716.975 321.095, 720 319.724 C 723.025 318.353, 728.538 315.829, 732.250 314.115 C 735.962 312.402, 742.038 309.598, 745.750 307.885 C 749.462 306.171, 754.975 303.648, 758 302.278 C 761.025 300.908, 766.200 298.533, 769.500 297 C 772.800 295.467, 777.975 293.092, 781 291.722 C 784.025 290.352, 789.538 287.829, 793.250 286.115 C 796.962 284.402, 803.038 281.598, 806.750 279.885 C 810.462 278.171, 815.975 275.647, 819 274.276 C 822.025 272.905, 827.875 270.170, 832 268.198 L 839.500 264.614 834 263.907 C 830.975 263.518, 824 262.676, 818.500 262.036 C 813 261.395, 805.350 260.465, 801.500 259.968 C 797.650 259.471, 790.900 258.602, 786.500 258.036 C 782.100 257.471, 767.250 255.658, 753.500 254.008 C 739.750 252.357, 726.700 250.778, 724.500 250.498 C 722.300 250.218, 717.013 249.541, 712.750 248.994 C 708.487 248.448, 701.391 247.569, 696.979 247.041 C 692.568 246.514, 687.280 245.787, 685.229 245.425 C 681.958 244.848, 681.684 244.945, 683 246.215 M 733 281.041 C 726.675 281.424, 720.090 281.796, 718.367 281.868 C 715.828 281.975, 715.138 282.497, 714.733 284.616 C 714.253 287.128, 714.378 287.208, 717.866 286.637 C 719.865 286.310, 723.525 285.578, 726 285.012 C 728.475 284.446, 733.425 283.489, 737 282.886 C 740.575 282.283, 744.175 281.400, 745 280.925 C 745.825 280.450, 746.050 280.125, 745.500 280.203 C 744.950 280.282, 739.325 280.659, 733 281.041 M 659.835 283.684 C 658.919 283.921, 657.882 284.864, 657.531 285.781 C 657.141 286.795, 657.574 287.947, 658.637 288.724 C 659.597 289.426, 661.001 290, 661.757 290 C 662.513 290, 664.002 289.534, 665.066 288.965 C 666.130 288.395, 666.993 287.608, 666.985 287.215 C 666.976 286.822, 666.639 285.998, 666.235 285.385 C 665.831 284.771, 664.600 284.041, 663.500 283.762 C 662.400 283.483, 660.751 283.448, 659.835 283.684 M 644.750 286.080 C 643.788 286.641, 643 287.697, 643 288.427 C 643 289.158, 643.589 290.244, 644.310 290.842 C 645.116 291.511, 646.750 291.626, 648.560 291.143 C 650.193 290.706, 651.655 289.553, 651.848 288.548 C 652.040 287.553, 651.590 286.355, 650.848 285.885 C 650.107 285.415, 648.825 285.037, 648 285.046 C 647.175 285.054, 645.712 285.519, 644.750 286.080 M 672.035 286.458 C 671.055 287.639, 671.322 288.413, 673.441 290.532 C 674.880 291.971, 676.607 292.967, 677.278 292.746 C 677.950 292.524, 678.655 291.279, 678.845 289.978 C 679.053 288.548, 678.483 287.095, 677.404 286.306 C 676.421 285.588, 675.084 285, 674.431 285 C 673.779 285, 672.700 285.656, 672.035 286.458 M 632 288.891 C 630.463 289.316, 629.377 290.434, 629.180 291.795 C 628.989 293.112, 629.497 294.253, 630.432 294.612 C 631.297 294.944, 633.079 294.946, 634.392 294.616 C 635.705 294.287, 637.062 293.281, 637.407 292.382 C 637.752 291.482, 637.522 290.129, 636.895 289.373 C 636.268 288.618, 635.473 288.045, 635.128 288.100 C 634.782 288.155, 633.375 288.510, 632 288.891 M 618.009 293.290 C 616.639 293.983, 615.368 295.328, 615.185 296.278 C 615.002 297.228, 615.561 298.278, 616.428 298.611 C 617.295 298.944, 619.079 298.946, 620.392 298.616 C 621.705 298.287, 623.062 297.281, 623.407 296.382 C 623.752 295.482, 623.522 294.129, 622.895 293.373 C 622.268 292.618, 621.473 292.007, 621.128 292.015 C 620.782 292.023, 619.379 292.597, 618.009 293.290 M 603.750 298.572 C 602.237 299.393, 601 300.467, 601 300.961 C 601 301.454, 601.707 302.564, 602.571 303.429 C 603.436 304.293, 604.448 304.998, 604.821 304.995 C 605.195 304.992, 606.793 303.955, 608.374 302.690 C 611.076 300.528, 611.146 300.289, 609.552 298.695 C 608.620 297.763, 607.552 297.018, 607.179 297.040 C 606.805 297.062, 605.263 297.751, 603.750 298.572 M 590.695 304.785 C 589.763 305.815, 589 307.383, 589 308.270 C 589 309.156, 589.437 310.152, 589.971 310.482 C 590.504 310.812, 592.332 310.362, 594.033 309.483 C 596.293 308.314, 597.040 307.296, 596.812 305.692 C 596.625 304.376, 595.678 303.382, 594.445 303.206 C 593.314 303.044, 591.627 303.755, 590.695 304.785 M 578.223 311.557 C 577 312.413, 576 313.988, 576 315.057 C 576 316.526, 576.694 317, 578.845 317 C 580.411 317, 582.496 316.109, 583.483 315.019 C 584.950 313.397, 585.047 312.762, 584.016 311.519 C 583.322 310.683, 582.235 310, 581.600 310 C 580.965 310, 579.445 310.701, 578.223 311.557 M 566 320 C 564.900 321.100, 564 322.627, 564 323.393 C 564 324.159, 564.708 325.058, 565.572 325.389 C 566.437 325.721, 567.937 325.569, 568.905 325.051 C 569.873 324.533, 571.245 323.410, 571.955 322.555 C 572.986 321.312, 572.995 320.699, 572 319.500 C 571.315 318.675, 570.135 318, 569.378 318 C 568.620 318, 567.100 318.900, 566 320 M 555.079 329.415 C 553.731 330.851, 552.998 332.552, 553.342 333.449 C 553.669 334.302, 554.782 335, 555.814 335 C 556.846 335, 558.474 334.133, 559.433 333.074 C 560.391 332.015, 561.018 330.333, 560.826 329.336 C 560.634 328.339, 559.787 327.390, 558.944 327.228 C 558.102 327.065, 556.362 328.050, 555.079 329.415 M 715 329.500 C 715 329.775, 715.225 330, 715.500 330 C 715.775 330, 716 329.775, 716 329.500 C 716 329.225, 715.775 329, 715.500 329 C 715.225 329, 715 329.225, 715 329.500 M 707.750 332.566 C 705.138 333.926, 703 335.262, 703 335.536 C 703 335.810, 705.250 334.894, 708 333.500 C 710.750 332.106, 713 330.749, 713 330.483 C 713 330.217, 712.888 330.021, 712.750 330.047 C 712.612 330.072, 710.362 331.206, 707.750 332.566 M 546.039 340.189 C 544.918 341.392, 544 342.912, 544 343.566 C 544 344.220, 544.675 345.315, 545.500 346 C 546.699 346.995, 547.312 346.986, 548.555 345.955 C 549.410 345.245, 550.533 343.873, 551.051 342.905 C 551.569 341.937, 551.721 340.437, 551.389 339.572 C 551.058 338.708, 550.177 338, 549.432 338 C 548.687 338, 547.160 338.985, 546.039 340.189 M 539.002 353.496 C 538.451 354.945, 538 356.728, 538 357.458 C 538 358.188, 538.784 359.087, 539.741 359.454 C 540.898 359.898, 542.089 359.373, 543.289 357.892 C 544.282 356.665, 544.961 354.725, 544.797 353.581 C 544.615 352.303, 543.632 351.377, 542.252 351.181 C 540.590 350.945, 539.742 351.549, 539.002 353.496 M 536.815 367.506 C 535.954 369.397, 535.910 370.634, 536.663 371.828 C 537.243 372.747, 538.569 373.500, 539.609 373.500 C 541.147 373.500, 541.500 372.757, 541.500 369.514 C 541.500 366.522, 541.066 365.444, 539.761 365.192 C 538.659 364.980, 537.580 365.828, 536.815 367.506 M 539.667 379.667 C 539.300 380.033, 539 381.553, 539 383.044 C 539 384.535, 539.669 386.311, 540.487 386.989 C 541.305 387.668, 542.655 387.963, 543.487 387.643 C 544.319 387.324, 545 385.956, 545 384.603 C 545 383.250, 544.293 381.436, 543.429 380.571 C 542.564 379.707, 541.514 379, 541.095 379 C 540.676 379, 540.033 379.300, 539.667 379.667 M 544.546 393.925 C 544.232 394.434, 544.491 395.984, 545.123 397.370 C 545.754 398.756, 546.926 400.141, 547.726 400.448 C 548.526 400.755, 549.590 400.753, 550.090 400.444 C 550.591 400.135, 551 398.874, 551 397.641 C 551 396.408, 550.460 394.860, 549.800 394.200 C 549.140 393.540, 547.817 393, 546.859 393 C 545.901 393, 544.861 393.416, 544.546 393.925 M 552.200 406.200 C 551.540 406.860, 551 407.907, 551 408.526 C 551 409.145, 552.042 410.630, 553.314 411.826 C 554.587 413.022, 556.132 414, 556.747 414 C 557.362 414, 558.148 413.109, 558.494 412.019 C 558.872 410.827, 558.402 409.048, 557.311 407.551 C 556.315 406.182, 555.028 405.049, 554.450 405.031 C 553.872 405.014, 552.860 405.540, 552.200 406.200 M 320.523 412.620 C 319.100 414.043, 318.939 417.219, 319.201 438.621 C 319.365 452.031, 319.147 463.001, 318.715 463.001 C 318.283 463, 316.728 462.213, 315.260 461.251 C 313.791 460.288, 310.994 458.945, 309.045 458.266 C 307.095 457.586, 301.964 457.023, 297.643 457.015 C 290.973 457.002, 288.844 457.449, 283.554 459.974 C 279.875 461.730, 275.474 464.924, 272.813 467.769 C 270.332 470.421, 268.027 473.245, 267.690 474.045 C 267.214 475.175, 266.685 474.941, 265.327 473 C 264.364 471.625, 261.966 468.925, 259.997 467 C 258.028 465.075, 254.410 462.509, 251.958 461.299 C 249.506 460.088, 245.666 458.578, 243.424 457.943 C 241.180 457.307, 235.340 456.948, 230.424 457.144 C 223.036 457.439, 220.468 458.004, 215.500 460.431 C 211.998 462.142, 206.898 465.954, 203.250 469.589 C 199.812 473.013, 197 475.455, 197 475.016 C 197 474.576, 194.913 471.895, 192.363 469.058 C 189.812 466.221, 186.029 463.035, 183.956 461.977 C 181.882 460.920, 178.232 459.374, 175.843 458.542 C 173.371 457.681, 168.011 457.023, 163.399 457.015 C 158.944 457.007, 153.769 457.488, 151.899 458.085 C 150.030 458.681, 146.516 460.139, 144.091 461.324 C 141.666 462.508, 137.054 466.106, 133.841 469.319 L 128 475.160 128 468.687 C 128 463.707, 127.635 462.074, 126.418 461.607 C 125.548 461.273, 117.223 461, 107.918 461 L 91 461 91 451.021 L 91 441.042 110.750 440.771 L 130.500 440.500 130.792 430.500 C 130.953 425, 130.832 419.488, 130.523 418.250 L 129.962 416 97 416 L 64.038 416 63.492 418.250 C 63.192 419.488, 63.071 445.250, 63.223 475.500 L 63.500 530.500 76.419 530.781 C 83.524 530.936, 89.738 530.662, 90.226 530.174 C 90.715 529.685, 91.201 519.659, 91.307 507.893 L 91.500 486.500 107.308 486.500 L 123.116 486.500 123.308 495.500 C 123.472 503.197, 123.925 505.369, 126.436 510.500 C 128.088 513.874, 131.670 518.714, 134.623 521.560 C 137.511 524.343, 141.815 527.568, 144.187 528.726 C 146.559 529.884, 150.030 531.319, 151.899 531.915 C 153.769 532.512, 158.944 532.980, 163.399 532.956 C 167.855 532.932, 173.525 532.362, 176 531.689 C 178.475 531.017, 182.662 529.370, 185.304 528.029 C 187.947 526.688, 192.072 523.492, 194.471 520.927 L 198.834 516.263 203.547 521.048 C 206.139 523.680, 211.213 527.333, 214.822 529.166 C 220.688 532.146, 222.423 532.536, 231.172 532.843 C 239.131 533.122, 242.210 532.782, 247.648 531.026 C 251.326 529.837, 256.251 527.547, 258.592 525.937 C 260.933 524.326, 263.945 521.608, 265.284 519.897 L 267.719 516.785 272.520 521.918 C 275.462 525.064, 279.735 528.203, 283.554 530.026 C 288.701 532.482, 291.054 533, 297.072 533 C 301.079 533, 305.965 532.452, 307.929 531.781 C 309.893 531.111, 313.383 529.310, 315.683 527.779 L 319.867 524.996 320.183 527.748 L 320.500 530.500 333 530.500 L 345.500 530.500 345.782 518.750 C 345.958 511.415, 346.457 507, 347.110 507 C 347.685 507, 348.056 508.462, 347.933 510.250 C 347.810 512.038, 347.775 517.438, 347.855 522.250 L 348 531 359.418 531 C 365.698 531, 371.548 530.727, 372.418 530.393 C 373.288 530.059, 374 528.724, 374 527.427 L 374 525.068 378.250 527.887 C 380.587 529.437, 384.030 531.222, 385.899 531.853 C 387.769 532.484, 392.364 533, 396.112 533 C 400.536 533, 404.850 532.280, 408.414 530.946 C 411.439 529.814, 416.188 526.838, 418.993 524.316 C 421.793 521.799, 424.767 518.418, 425.602 516.803 L 427.121 513.866 429.889 517.683 C 431.411 519.782, 434.397 523.026, 436.525 524.892 C 438.652 526.757, 442.792 529.345, 445.725 530.642 C 449.077 532.125, 452.996 533.006, 456.279 533.015 C 459.557 533.025, 460.998 533.349, 460.152 533.885 C 459.410 534.355, 458.965 535.581, 459.163 536.608 C 459.361 537.636, 460.339 538.634, 461.336 538.826 C 462.333 539.018, 464.015 538.391, 465.074 537.433 C 466.133 536.474, 467 534.890, 467 533.912 C 467 532.935, 467.872 531.858, 468.937 531.520 C 470.003 531.182, 471.727 531.437, 472.767 532.087 C 474.290 533.038, 475.182 532.927, 477.330 531.519 C 479.020 530.412, 480.043 528.803, 480.118 527.135 C 480.233 524.588, 480.258 524.600, 480.878 527.500 L 481.520 530.500 494.010 530.500 L 506.500 530.500 506.788 520.614 L 507.076 510.728 509.882 515.152 C 511.425 517.586, 514.554 521.174, 516.835 523.126 C 519.115 525.079, 522.898 527.611, 525.241 528.753 C 527.583 529.896, 531.030 531.319, 532.899 531.915 C 534.769 532.512, 539.761 533, 543.994 533 C 548.793 533, 553.799 532.304, 557.295 531.151 C 560.535 530.082, 563.274 529.674, 563.784 530.184 C 564.269 530.669, 570.029 530.939, 576.583 530.783 L 588.500 530.500 588.781 517.545 L 589.063 504.590 602.305 517.806 L 615.548 531.021 660.024 530.761 L 704.500 530.500 705 524.159 L 705.500 517.818 708 520.515 C 709.375 521.999, 712.322 524.474, 714.550 526.017 C 716.777 527.559, 721.464 529.761, 724.965 530.910 C 729.549 532.415, 733.897 533, 740.500 533 C 747.103 533, 751.451 532.415, 756.035 530.910 C 759.536 529.761, 764.223 527.554, 766.450 526.005 C 768.678 524.456, 771.442 522.295, 772.593 521.202 C 773.744 520.109, 775.658 517.979, 776.845 516.469 L 779.005 513.724 783.111 518.388 C 785.369 520.954, 789.103 524.351, 791.408 525.937 C 793.714 527.523, 798.464 529.761, 801.965 530.910 C 806.549 532.415, 810.897 533, 817.500 533 C 824.103 533, 828.451 532.415, 833.035 530.910 C 836.536 529.761, 841.244 527.552, 843.497 526.002 C 845.750 524.452, 849.262 521.466, 851.301 519.367 C 853.340 517.268, 855.344 514.639, 855.754 513.525 C 856.164 512.411, 856.725 523.875, 857 539 L 857.500 566.500 870 566.500 L 882.500 566.500 882.770 546.333 L 883.041 526.166 889.181 529.333 C 894.234 531.939, 896.736 532.564, 903.305 532.862 C 908.102 533.080, 912.927 532.707, 915.394 531.926 C 917.652 531.212, 921.750 529.166, 924.500 527.379 C 927.250 525.592, 931.096 521.963, 933.046 519.315 C 934.996 516.667, 937.096 513.375, 937.713 512 C 938.330 510.625, 939.322 507.970, 939.918 506.101 C 940.513 504.231, 941 498.965, 941 494.398 C 941 489.831, 940.494 484.835, 939.875 483.297 C 939.257 481.759, 938.263 479.375, 937.666 478 C 937.069 476.625, 935.088 473.398, 933.263 470.829 C 931.439 468.261, 927.596 464.644, 924.723 462.792 C 921.850 460.940, 917.893 458.880, 915.929 458.213 C 913.965 457.546, 909.165 457, 905.262 457 C 900.372 457, 896.705 457.626, 893.468 459.014 C 890.884 460.121, 887.503 461.930, 885.953 463.033 L 883.137 465.039 882.818 462.269 L 882.500 459.500 870 459.500 L 857.500 459.500 856.944 469.500 C 856.638 475, 856.300 478.749, 856.194 477.831 C 856.087 476.912, 853.790 473.743, 851.089 470.788 C 848.389 467.833, 843.915 464.183, 841.149 462.678 C 838.383 461.172, 833.955 459.284, 831.310 458.481 C 828.625 457.666, 822.480 457.017, 817.399 457.011 C 812.394 457.005, 806.769 457.494, 804.899 458.097 C 803.030 458.701, 799.131 460.273, 796.235 461.592 C 793.339 462.910, 788.559 466.354, 785.613 469.244 C 782.668 472.135, 779.975 475.175, 779.629 476 C 779.084 477.300, 778.913 477.306, 778.348 476.045 C 777.990 475.245, 775.751 472.510, 773.372 469.967 C 770.994 467.424, 766.814 464.128, 764.084 462.642 C 761.354 461.156, 756.955 459.284, 754.310 458.481 C 751.654 457.675, 745.501 457.017, 740.571 457.011 C 735.660 457.005, 730.035 457.520, 728.071 458.155 C 726.107 458.790, 722.110 460.411, 719.189 461.758 C 716.267 463.105, 711.488 466.540, 708.567 469.391 C 705.647 472.243, 702.360 476.359, 701.264 478.538 C 700.168 480.717, 698.704 484.912, 698.010 487.860 C 697.315 490.809, 696.997 495.309, 697.303 497.860 C 697.608 500.412, 698.167 503.299, 698.546 504.275 C 699.190 505.938, 698.196 506.033, 682.867 505.775 L 666.500 505.500 666.212 496.215 L 665.924 486.930 669.526 485.425 C 672.335 484.251, 673.059 483.433, 672.814 481.710 C 672.571 480.001, 671.819 479.492, 669.500 479.463 L 666.500 479.426 666.316 448.113 C 666.215 430.890, 665.841 416.508, 665.486 416.153 C 665.131 415.798, 659.139 415.661, 652.171 415.849 C 645.202 416.037, 639.163 416.399, 638.751 416.654 C 638.338 416.909, 638 418.891, 638 421.059 C 638 423.936, 637.585 425, 636.465 425 C 635.620 425, 633.820 425.727, 632.465 426.615 C 631.109 427.503, 630 428.596, 630 429.044 C 630 429.491, 630.736 430.593, 631.636 431.493 C 632.792 432.649, 633.583 432.817, 634.336 432.064 C 634.921 431.479, 635.985 431, 636.700 431 C 637.705 431, 638 434.179, 638 445 L 638 459 624.604 459 L 611.207 459 608.263 462.353 L 605.319 465.706 603.012 463.308 C 601.742 461.989, 599.988 461.048, 599.113 461.217 C 598.239 461.385, 597.355 462.397, 597.149 463.466 C 596.928 464.611, 597.745 466.249, 599.137 467.454 L 601.500 469.500 595.250 475.596 L 589 481.692 589 470.346 L 589 459 591.500 459 C 593.254 459, 594 458.455, 594 457.174 C 594 456.170, 592.884 454.300, 591.521 453.019 C 589.065 450.713, 589.039 450.500, 588.771 431.095 L 588.500 411.500 576 411.500 C 563.547 411.500, 563.499 411.509, 563.159 413.913 C 562.972 415.241, 561.847 417.130, 560.659 418.112 L 558.500 419.897 560.750 423.897 C 562.824 427.583, 563 429.153, 563 443.948 C 563 452.777, 562.622 460, 562.159 460 C 561.696 460, 559.109 459.330, 556.409 458.511 C 553.709 457.692, 548.080 457.017, 543.899 457.011 C 539.719 457.005, 534.769 457.488, 532.899 458.085 C 531.030 458.681, 527.479 460.144, 525.008 461.335 C 522.538 462.526, 517.966 466.055, 514.849 469.178 C 511.731 472.301, 508.802 475.901, 508.340 477.178 C 507.748 478.814, 507.352 476.547, 507 469.500 L 506.500 459.500 494.045 459.500 C 481.931 459.500, 481.575 459.562, 481.045 461.765 L 480.500 464.031 477 461.738 C 475.075 460.477, 471.893 458.895, 469.929 458.223 C 467.965 457.550, 462.915 457, 458.708 457 C 452.844 457, 449.812 457.551, 445.725 459.358 C 442.792 460.655, 438.652 463.243, 436.525 465.108 C 434.397 466.974, 431.426 470.197, 429.922 472.270 L 427.188 476.040 425.030 472.549 C 423.844 470.629, 420.830 467.260, 418.333 465.062 C 415.837 462.865, 411.349 460.152, 408.360 459.033 C 404.716 457.670, 400.548 457.005, 395.712 457.015 C 391.746 457.023, 386.925 457.602, 385 458.302 C 383.075 459.001, 380.060 460.344, 378.300 461.287 C 376.539 462.229, 374.852 463, 374.550 463 C 374.247 463, 374 451.534, 374 437.519 L 374 412.038 371.750 411.477 C 370.512 411.169, 364.775 411.048, 359 411.208 L 348.500 411.500 348 458 C 347.725 483.575, 347.163 503.676, 346.750 502.668 C 346.337 501.661, 346 480.896, 346 456.525 C 346 417.042, 345.828 412.148, 344.418 411.607 C 343.548 411.273, 338.180 411, 332.490 411 C 324.284 411, 321.808 411.335, 320.523 412.620 M 672.441 415.501 C 670.531 416.978, 670.535 417.031, 672.701 418.871 C 674.067 420.032, 675.844 420.561, 677.384 420.267 C 678.749 420.006, 680.145 419.064, 680.487 418.173 C 680.856 417.212, 680.399 416.033, 679.363 415.276 C 678.403 414.574, 676.890 414, 676 414 C 675.110 414, 673.509 414.675, 672.441 415.501 M 687.250 416.672 C 686.563 416.944, 686 418.013, 686 419.048 C 686 420.083, 686.870 421.395, 687.934 421.965 C 688.998 422.534, 690.812 423, 691.966 423 C 693.119 423, 694.335 422.290, 694.668 421.422 C 695.001 420.555, 694.649 419.253, 693.887 418.530 C 693.124 417.806, 691.600 416.981, 690.500 416.696 C 689.400 416.411, 687.938 416.400, 687.250 416.672 M 699.301 424.658 C 698.882 425.751, 699.610 427.128, 701.443 428.704 C 702.970 430.018, 704.733 430.925, 705.360 430.718 C 705.987 430.512, 706.649 429.330, 706.830 428.091 C 707.023 426.772, 706.401 425.263, 705.330 424.451 C 704.324 423.688, 702.698 423.049, 701.719 423.032 C 700.739 423.014, 699.651 423.746, 699.301 424.658 M 621.489 432.201 C 620.395 432.777, 618.945 433.943, 618.267 434.792 C 617.360 435.928, 617.326 436.688, 618.139 437.668 C 618.747 438.401, 620.020 439, 620.967 439 C 621.915 439, 623.435 438.177, 624.345 437.171 C 625.255 436.165, 626 434.871, 626 434.294 C 626 433.717, 625.433 432.774, 624.739 432.199 C 623.862 431.470, 622.874 431.471, 621.489 432.201 M 711.250 432.662 C 710.563 432.940, 710 433.951, 710 434.909 C 710 435.867, 711.092 437.677, 712.426 438.930 C 713.760 440.184, 715.335 440.911, 715.926 440.546 C 716.517 440.181, 717 438.853, 717 437.596 C 717 436.339, 716.177 434.565, 715.171 433.655 C 714.165 432.745, 713.153 432.036, 712.921 432.079 C 712.690 432.122, 711.938 432.385, 711.250 432.662 M 607.250 440.661 C 606.013 441.532, 605 442.809, 605 443.500 C 605 444.190, 605.645 445.290, 606.433 445.944 C 607.559 446.879, 608.427 446.766, 610.483 445.419 C 612.189 444.301, 612.996 442.976, 612.800 441.612 C 612.635 440.462, 611.825 439.421, 611 439.299 C 610.175 439.177, 608.487 439.790, 607.250 440.661 M 712.655 446.829 C 711.745 447.835, 711 449.649, 711 450.860 C 711 452.072, 711.745 453.349, 712.656 453.698 C 713.715 454.105, 714.976 453.513, 716.156 452.056 C 717.170 450.803, 718 448.976, 718 447.996 C 718 447.016, 717.288 445.941, 716.418 445.607 C 715.548 445.273, 714.718 445, 714.573 445 C 714.428 445, 713.565 445.823, 712.655 446.829 M 594.695 448.785 C 593.763 449.815, 593.007 451.072, 593.015 451.579 C 593.024 452.085, 593.414 453.105, 593.883 453.844 C 594.585 454.952, 595.296 454.898, 597.929 453.537 C 600.283 452.319, 601.042 451.308, 600.812 449.692 C 600.625 448.376, 599.678 447.382, 598.445 447.206 C 597.314 447.044, 595.627 447.755, 594.695 448.785 M 703.939 459.061 C 702.805 460.195, 702.023 461.883, 702.202 462.811 C 702.402 463.848, 703.473 464.500, 704.975 464.500 C 706.615 464.500, 707.931 463.584, 708.962 461.725 C 710.327 459.263, 710.331 458.842, 709 457.990 C 708.175 457.462, 707.163 457.024, 706.750 457.015 C 706.337 457.007, 705.072 457.928, 703.939 459.061 M 692.567 468.926 C 691.609 469.985, 690.977 471.635, 691.162 472.593 C 691.348 473.551, 692.013 474.505, 692.640 474.714 C 693.267 474.923, 695.030 474.018, 696.557 472.704 C 698.390 471.128, 699.118 469.751, 698.699 468.658 C 698.349 467.746, 697.218 467, 696.186 467 C 695.154 467, 693.526 467.867, 692.567 468.926 M 633.154 472.335 C 629.444 476.122, 628.965 477.066, 629.883 478.781 C 630.708 480.322, 630.615 481.075, 629.485 482.013 C 628.674 482.685, 626.915 483.026, 625.574 482.769 C 623.637 482.399, 621.997 483.456, 617.576 487.923 L 612.015 493.543 625.007 506.507 L 638 519.471 638 503.458 C 638 490.400, 637.705 487.024, 636.400 485.161 C 634.931 483.063, 634.935 482.729, 636.454 481.051 C 637.675 479.702, 638.027 477.746, 637.803 473.562 L 637.500 467.899 633.154 472.335 M 680.937 475.344 C 679.590 476.016, 678.500 477.440, 678.500 478.530 C 678.500 479.912, 679.283 480.591, 681.124 480.804 C 682.576 480.973, 684.475 480.382, 685.374 479.483 C 686.268 478.589, 687 477.455, 687 476.964 C 687 476.472, 686.184 475.634, 685.187 475.100 C 683.958 474.443, 682.587 474.521, 680.937 475.344 M 154.400 478.400 C 152.530 480.270, 151.001 482.183, 151.003 482.650 C 151.004 483.118, 156.404 483.542, 163.003 483.593 C 171.082 483.655, 174.993 483.329, 174.978 482.593 C 174.966 481.992, 174.178 480.540, 173.228 479.367 C 172.277 478.194, 170.517 476.731, 169.316 476.117 C 168.114 475.503, 165.032 475, 162.466 475 C 158.493 475, 157.295 475.505, 154.400 478.400 M 225.775 476.559 C 224.276 477.372, 222.589 478.900, 222.025 479.953 C 221.461 481.007, 221 482.294, 221 482.815 C 221 483.362, 225.716 483.706, 232.165 483.631 C 240.186 483.537, 243.449 483.144, 243.753 482.234 C 243.987 481.538, 242.740 479.625, 240.983 477.984 C 238.365 475.539, 236.950 475.007, 233.144 475.040 C 230.590 475.062, 227.274 475.746, 225.775 476.559 M 561.250 478.662 C 560.563 478.940, 560 479.834, 560 480.651 C 560 481.732, 559.389 481.943, 557.750 481.430 C 556.513 481.043, 554.938 480.514, 554.250 480.256 C 553.482 479.967, 553 480.651, 553 482.033 C 553 483.268, 552.212 484.877, 551.250 485.608 C 550.288 486.339, 548.698 486.951, 547.719 486.968 C 546.739 486.986, 545.676 486.319, 545.357 485.487 C 545.037 484.655, 545.373 483.255, 546.103 482.375 C 546.833 481.496, 548.346 480.405, 549.465 479.952 C 551.037 479.314, 550.569 479.112, 547.404 479.063 C 545.151 479.029, 541.899 479.702, 540.178 480.561 C 538.457 481.419, 536.140 483.278, 535.028 484.691 C 533.916 486.105, 532.556 488.934, 532.006 490.979 C 531.261 493.746, 531.370 495.911, 532.433 499.443 C 533.218 502.053, 534.671 505.084, 535.660 506.177 C 536.650 507.271, 538.986 508.803, 540.852 509.583 C 542.718 510.362, 545.708 511, 547.496 511 C 549.285 511, 552.712 510.307, 555.111 509.461 C 557.511 508.614, 559.608 508.325, 559.773 508.819 C 559.938 509.313, 560.717 510.568, 561.504 511.608 C 562.765 513.273, 562.940 511.372, 562.968 495.750 C 562.986 485.988, 562.888 478.036, 562.750 478.079 C 562.612 478.122, 561.938 478.385, 561.250 478.662 M 298.071 481.689 C 296.185 482.685, 293.718 484.760, 292.588 486.300 C 291.015 488.446, 290.566 490.477, 290.669 494.981 C 290.752 498.591, 291.486 502.015, 292.572 503.852 C 293.543 505.497, 295.456 507.441, 296.821 508.172 C 298.186 508.902, 301.867 509.500, 305 509.500 C 308.133 509.500, 311.778 508.910, 313.099 508.188 C 314.419 507.467, 316.400 505.667, 317.500 504.188 C 319.036 502.124, 319.500 499.937, 319.500 494.767 C 319.500 488.379, 319.316 487.850, 315.930 484.463 C 312.940 481.474, 311.475 480.810, 306.930 480.385 C 302.868 480.005, 300.636 480.334, 298.071 481.689 M 383 480.722 C 382.175 481.032, 380.273 482.144, 378.773 483.194 C 377.018 484.423, 375.524 486.865, 374.577 490.051 C 373.285 494.405, 373.285 495.595, 374.577 499.949 C 375.582 503.331, 377.018 505.589, 379.115 507.082 C 380.802 508.283, 384.113 509.484, 386.473 509.750 C 388.832 510.016, 392.396 509.694, 394.392 509.035 C 396.389 508.377, 399.142 506.369, 400.511 504.574 C 402.550 501.902, 403 500.180, 403 495.060 C 403 490.432, 402.486 488.086, 401.020 486.028 C 399.931 484.498, 397.500 482.516, 395.619 481.623 C 393.737 480.730, 390.466 480.036, 388.349 480.079 C 386.232 480.122, 383.825 480.412, 383 480.722 M 459.020 481.689 C 457.106 482.685, 454.518 485.029, 453.270 486.898 C 451.756 489.164, 451 491.783, 451 494.762 C 451 497.464, 451.840 500.723, 453.128 503.013 C 454.298 505.095, 456.391 507.406, 457.779 508.149 C 459.167 508.892, 462.867 509.500, 466 509.500 C 469.133 509.500, 472.833 508.892, 474.221 508.149 C 475.609 507.406, 477.702 505.095, 478.872 503.013 C 480.096 500.837, 481 497.458, 481 495.064 C 481 492.774, 480.368 489.686, 479.595 488.200 C 478.822 486.715, 477.077 484.461, 475.717 483.190 C 473.993 481.580, 471.617 480.729, 467.872 480.379 C 463.880 480.006, 461.606 480.343, 459.020 481.689 M 732.984 481.829 C 730.946 482.900, 728.709 485.246, 727.594 487.484 C 726.543 489.594, 725.717 493.258, 725.754 495.657 C 725.790 498.049, 726.648 501.416, 727.660 503.140 C 728.672 504.864, 731.068 507.112, 732.984 508.137 C 734.901 509.162, 738.178 510, 740.267 510 C 742.355 510, 745.558 509.376, 747.383 508.613 C 749.209 507.850, 751.670 505.868, 752.851 504.209 C 754.493 501.903, 755 499.731, 755 495 C 755 490.432, 754.481 488.080, 753.020 486.028 C 751.931 484.498, 749.500 482.516, 747.619 481.623 C 745.737 480.730, 742.459 480, 740.333 480 C 738.208 480, 734.901 480.823, 732.984 481.829 M 812.542 480.678 C 811.465 480.980, 809.529 481.918, 808.241 482.762 C 806.952 483.606, 805.246 485.558, 804.449 487.099 C 803.652 488.640, 803.002 492.286, 803.004 495.200 C 803.006 498.620, 803.674 501.593, 804.886 503.580 C 805.919 505.274, 808.348 507.412, 810.283 508.330 C 812.219 509.249, 815.392 510, 817.336 510 C 819.280 510, 822.137 509.520, 823.685 508.933 C 825.233 508.347, 827.463 506.965, 828.640 505.863 C 829.817 504.760, 831.338 501.865, 832.020 499.429 C 833.014 495.880, 833.006 494.094, 831.983 490.439 C 831.107 487.309, 829.640 485.065, 827.311 483.288 C 824.998 481.524, 822.415 480.608, 819.208 480.413 C 816.619 480.257, 813.619 480.376, 812.542 480.678 M 892.500 480.659 C 891.400 480.956, 889.445 482.167, 888.155 483.350 C 886.865 484.532, 885.178 486.715, 884.405 488.200 C 883.632 489.686, 883 492.881, 883 495.302 C 883 498.214, 883.768 500.855, 885.270 503.102 C 886.518 504.971, 889.106 507.315, 891.020 508.311 C 893.606 509.657, 895.880 509.994, 899.872 509.621 C 903.617 509.271, 905.993 508.420, 907.717 506.810 C 909.077 505.539, 910.822 503.285, 911.595 501.800 C 912.368 500.314, 913 497.030, 913 494.500 C 913 491.970, 912.348 488.640, 911.551 487.099 C 910.754 485.558, 908.914 483.519, 907.462 482.567 C 906.010 481.616, 902.499 480.675, 899.661 480.477 C 896.822 480.280, 893.600 480.361, 892.500 480.659 M 535.582 489.345 C 533.619 490.916, 532.872 492.224, 533.300 493.340 C 533.651 494.253, 534.739 494.986, 535.719 494.968 C 536.698 494.951, 538.324 494.312, 539.330 493.549 C 540.401 492.737, 541.023 491.228, 540.830 489.909 C 540.649 488.670, 540.050 487.511, 539.500 487.334 C 538.950 487.156, 537.187 488.061, 535.582 489.345 M 151 501.632 C 151 503.354, 152.234 505.428, 154.571 507.632 C 157.928 510.797, 158.565 511, 165.167 511 C 170.800 511, 172.816 510.562, 175.346 508.787 C 177.081 507.569, 179.002 505.916, 179.615 505.111 C 180.568 503.862, 181.837 504.175, 188.356 507.271 L 195.982 510.893 194.491 507.324 C 193.671 505.362, 193 502.686, 193 501.378 L 193 499 172 499 L 151 499 151 501.632 M 220.540 499.936 C 220.208 500.473, 220.590 502.477, 221.389 504.390 C 222.209 506.352, 224.162 508.550, 225.872 509.434 C 227.652 510.354, 231.421 511, 235.016 511 C 238.380 511, 242.114 510.495, 243.316 509.878 C 244.517 509.261, 246.710 507.628, 248.189 506.249 L 250.878 503.743 257.746 507.169 L 264.614 510.595 263.690 506.547 C 263.182 504.321, 262.433 501.825, 262.025 501 C 261.410 499.755, 257.870 499.454, 241.214 499.230 C 228.929 499.064, 220.909 499.338, 220.540 499.936 M 301.200 536.200 C 300.540 536.860, 300 537.924, 300 538.565 C 300 539.206, 300.917 540.895, 302.037 542.320 C 303.231 543.837, 304.679 544.677, 305.537 544.348 C 306.342 544.039, 307 542.918, 307 541.858 C 307 540.797, 306.273 538.820, 305.385 537.465 C 304.497 536.109, 303.462 535, 303.085 535 C 302.708 535, 301.860 535.540, 301.200 536.200 M 363.937 536.576 C 362.851 537.885, 362.902 538.605, 364.243 540.826 C 365.131 542.297, 366.732 543.636, 367.801 543.803 C 368.895 543.973, 370.021 543.387, 370.376 542.462 C 370.736 541.524, 370.118 539.570, 368.935 537.909 C 367.796 536.309, 366.500 535, 366.054 535 C 365.609 535, 364.656 535.709, 363.937 536.576 M 448.389 538.968 C 447.228 539.443, 445.989 540.586, 445.636 541.507 C 445.283 542.427, 445.247 543.590, 445.556 544.090 C 445.865 544.591, 447.184 545, 448.488 545 C 449.791 545, 451.587 544.270, 452.479 543.379 C 453.370 542.487, 453.960 541.030, 453.788 540.140 C 453.617 539.251, 452.807 538.428, 451.989 538.313 C 451.170 538.197, 449.550 538.492, 448.389 538.968 M 434.250 545.012 C 432.993 545.528, 432 546.803, 432 547.900 C 432 549.003, 432.900 550.151, 434.049 550.516 C 435.265 550.901, 437.119 550.497, 438.610 549.520 C 440.019 548.597, 440.981 547.133, 440.801 546.187 C 440.624 545.259, 439.584 544.408, 438.490 544.295 C 437.395 544.182, 435.488 544.505, 434.250 545.012 M 309.667 547.667 C 309.300 548.033, 309 549.089, 309 550.012 C 309 550.935, 309.823 552.435, 310.829 553.345 C 311.835 554.255, 313.424 555, 314.360 555 C 315.297 555, 316.331 554.302, 316.658 553.449 C 317.001 552.555, 316.279 550.861, 314.952 549.449 C 313.687 548.102, 312.130 547, 311.492 547 C 310.855 547, 310.033 547.300, 309.667 547.667 M 371.250 548.662 C 370.563 548.940, 370 549.979, 370 550.973 C 370 551.966, 370.830 553.803, 371.844 555.056 C 373.024 556.513, 374.285 557.105, 375.344 556.698 C 376.255 556.349, 377 555.249, 377 554.254 C 377 553.259, 376.299 551.445, 375.443 550.223 C 374.587 549, 373.575 548.036, 373.193 548.079 C 372.812 548.122, 371.938 548.385, 371.250 548.662 M 419.515 550.984 C 417.874 552.797, 417.818 553.247, 419.080 554.508 C 420.113 555.541, 421.378 555.726, 423.513 555.155 C 425.790 554.546, 426.500 553.779, 426.500 551.928 C 426.500 550.069, 425.902 549.430, 423.948 549.203 C 422.348 549.016, 420.694 549.681, 419.515 550.984 M 406.750 554.060 C 405.788 554.632, 405 555.991, 405 557.081 C 405 558.171, 405.704 559.333, 406.564 559.663 C 407.424 559.993, 409.255 559.749, 410.632 559.122 C 412.415 558.309, 413.045 557.335, 412.818 555.740 C 412.625 554.381, 411.714 553.406, 410.500 553.260 C 409.400 553.128, 407.712 553.488, 406.750 554.060 M 320.302 558.656 C 319.895 559.715, 320.487 560.976, 321.944 562.156 C 323.197 563.170, 324.792 564, 325.488 564 C 326.185 564, 327.322 563.317, 328.016 562.481 C 329.047 561.238, 328.950 560.603, 327.483 558.981 C 326.497 557.892, 324.621 557, 323.314 557 C 322.007 557, 320.651 557.745, 320.302 558.656 M 392.243 558.157 C 391.559 558.841, 391 560.237, 391 561.260 C 391 562.799, 391.649 563.067, 394.750 562.810 C 398.001 562.541, 398.500 562.167, 398.500 560 C 398.500 558.076, 397.922 557.432, 395.993 557.207 C 394.614 557.046, 392.927 557.473, 392.243 558.157 M 377.631 561.281 C 376.172 562.347, 375.917 563.343, 376.463 565.831 C 376.848 567.583, 377.957 569.442, 378.928 569.962 C 380.105 570.591, 381.078 570.522, 381.847 569.753 C 382.481 569.119, 383 567.790, 383 566.800 C 383 565.810, 383.481 565, 384.070 565 C 384.658 565, 384.995 563.987, 384.820 562.750 C 384.600 561.204, 383.718 560.409, 381.999 560.208 C 380.624 560.047, 378.658 560.530, 377.631 561.281 M 333.607 563.582 C 333.273 564.452, 333 565.341, 333 565.559 C 333 565.776, 334.103 566.677, 335.451 567.560 C 336.894 568.505, 338.745 568.898, 339.951 568.516 C 341.078 568.158, 342 567.011, 342 565.968 C 342 564.924, 341.130 563.605, 340.066 563.035 C 339.002 562.466, 337.250 562, 336.173 562 C 335.095 562, 333.941 562.712, 333.607 563.582 M 363.250 562.639 C 362.563 562.929, 362 563.921, 362 564.843 C 362 565.765, 362.833 567.039, 363.852 567.675 C 365.260 568.555, 366.279 568.545, 368.102 567.636 C 369.421 566.979, 370.500 565.554, 370.500 564.470 C 370.500 562.991, 369.753 562.452, 367.500 562.306 C 365.850 562.199, 363.938 562.349, 363.250 562.639 M 348.082 564.847 C 347.402 566.117, 347.453 567.053, 348.247 567.847 C 348.881 568.481, 350.605 569, 352.078 569 C 353.550 569, 355.315 568.325, 356 567.500 C 356.993 566.303, 356.993 565.697, 356 564.500 C 355.315 563.675, 353.476 563, 351.913 563 C 350.172 563, 348.687 563.716, 348.082 564.847 M 381.328 576.587 C 380.964 577.537, 381.303 579.444, 382.083 580.827 C 382.862 582.209, 383.950 583.481, 384.500 583.654 C 385.050 583.826, 386.139 583.564, 386.919 583.070 C 388.016 582.376, 388.122 581.415, 387.386 578.836 C 386.726 576.526, 385.750 575.402, 384.212 575.180 C 382.820 574.979, 381.744 575.504, 381.328 576.587 M 385.709 589.624 C 385.319 590.014, 385.007 591.496, 385.015 592.917 C 385.024 594.337, 385.415 596.107, 385.885 596.848 C 386.355 597.590, 387.586 598.034, 388.620 597.835 C 390.085 597.553, 390.500 596.593, 390.500 593.486 C 390.500 590.235, 390.123 589.446, 388.459 589.208 C 387.336 589.047, 386.099 589.235, 385.709 589.624 M 382.479 605.672 C 381.223 607.589, 381.009 608.791, 381.721 609.922 C 382.267 610.790, 383.341 611.619, 384.107 611.764 C 384.873 611.908, 386.298 610.617, 387.273 608.893 C 388.629 606.495, 388.776 605.435, 387.900 604.380 C 387.270 603.621, 386.187 603, 385.493 603 C 384.798 603, 383.442 604.203, 382.479 605.672 M 375.206 617.281 C 373.993 618.572, 373 620.107, 373 620.692 C 373 621.277, 373.611 622.263, 374.359 622.883 C 375.398 623.745, 376.351 623.512, 378.413 621.890 C 380.136 620.535, 380.999 619.002, 380.804 617.645 C 380.637 616.476, 379.805 615.388, 378.956 615.227 C 378.107 615.065, 376.419 615.989, 375.206 617.281 M 365.193 627.574 C 363.742 628.592, 363 629.992, 363.193 631.347 C 363.375 632.625, 364.335 633.619, 365.555 633.794 C 366.686 633.956, 368.412 633.202, 369.393 632.118 C 370.373 631.035, 371.018 629.333, 370.826 628.336 C 370.634 627.339, 369.807 626.395, 368.989 626.239 C 368.170 626.082, 366.462 626.683, 365.193 627.574 M 354.048 637.449 C 352.721 638.861, 351.999 640.555, 352.342 641.449 C 352.669 642.302, 353.782 643, 354.814 643 C 355.846 643, 357.435 642.177, 358.345 641.171 C 359.255 640.165, 360 638.639, 360 637.778 C 360 636.918, 359.288 635.941, 358.418 635.607 C 357.548 635.273, 356.727 635, 356.593 635 C 356.458 635, 355.313 636.102, 354.048 637.449 M 341.631 646.855 C 340.687 647.899, 340.228 649.431, 340.583 650.355 C 340.930 651.260, 341.595 652, 342.060 652 C 342.525 652, 344.027 651.489, 345.398 650.865 C 346.769 650.240, 348.141 649.074, 348.448 648.274 C 348.755 647.474, 348.753 646.410, 348.444 645.910 C 348.135 645.409, 346.853 645, 345.596 645 C 344.339 645, 342.554 645.835, 341.631 646.855 M 133.301 648.658 C 132.882 649.751, 133.610 651.128, 135.443 652.704 C 136.970 654.018, 138.733 654.923, 139.360 654.714 C 139.987 654.505, 140.652 653.551, 140.838 652.593 C 141.023 651.635, 140.391 649.985, 139.433 648.926 C 138.474 647.867, 136.846 647, 135.814 647 C 134.782 647, 133.651 647.746, 133.301 648.658 M 329.631 654.855 C 328.687 655.899, 328.228 657.431, 328.583 658.355 C 328.930 659.260, 330.016 660, 330.996 660 C 331.976 660, 333.803 659.170, 335.056 658.156 C 336.513 656.976, 337.105 655.715, 336.698 654.656 C 336.349 653.745, 334.993 653, 333.686 653 C 332.379 653, 330.554 653.835, 329.631 654.855 M 145.667 655.667 C 145.300 656.033, 145 657.107, 145 658.052 C 145 658.997, 146.161 660.531, 147.581 661.461 C 149 662.391, 150.800 662.907, 151.581 662.607 C 152.361 662.308, 153 661.218, 153 660.186 C 153 659.154, 152.177 657.565, 151.171 656.655 C 150.165 655.745, 148.665 655, 147.838 655 C 147.010 655, 146.033 655.300, 145.667 655.667 M 318.223 661.557 C 317 662.413, 316 663.988, 316 665.057 C 316 666.526, 316.694 667, 318.845 667 C 320.411 667, 322.496 666.109, 323.483 665.019 C 324.950 663.397, 325.047 662.762, 324.016 661.519 C 323.322 660.683, 322.235 660, 321.600 660 C 320.965 660, 319.445 660.701, 318.223 661.557 M 157.667 663.667 C 157.300 664.033, 157 665.089, 157 666.012 C 157 666.935, 157.867 668.474, 158.926 669.433 C 159.985 670.391, 161.667 671.018, 162.664 670.826 C 163.661 670.634, 164.642 669.620, 164.844 668.572 C 165.062 667.439, 164.257 665.934, 162.855 664.856 C 161.560 663.860, 160.012 663.034, 159.417 663.022 C 158.821 663.010, 158.033 663.300, 157.667 663.667 M 305.306 669.437 C 302.624 671.767, 302.578 671.953, 304.261 673.662 C 305.913 675.340, 306.191 675.348, 308.761 673.793 C 310.267 672.882, 311.657 671.372, 311.848 670.438 C 312.040 669.504, 311.590 668.355, 310.848 667.885 C 310.107 667.415, 309.188 667.024, 308.806 667.015 C 308.424 667.007, 306.849 668.097, 305.306 669.437 M 169.667 671.667 C 169.300 672.033, 169 673.307, 169 674.498 C 169 675.767, 170.006 677.200, 171.433 677.964 C 172.770 678.680, 174.570 678.995, 175.433 678.664 C 176.295 678.333, 177 677.404, 177 676.599 C 177 675.795, 175.693 674.206, 174.096 673.068 C 172.498 671.931, 170.998 671, 170.762 671 C 170.526 671, 170.033 671.300, 169.667 671.667 M 292.634 675.278 C 291.608 676.028, 290.947 677.495, 291.151 678.566 C 291.354 679.630, 292.472 680.636, 293.636 680.803 C 294.799 680.970, 296.504 680.353, 297.425 679.432 C 298.346 678.511, 298.960 677.024, 298.790 676.129 C 298.619 675.233, 297.581 674.371, 296.483 674.212 C 295.384 674.054, 293.652 674.534, 292.634 675.278 M 181.667 679.667 C 181.300 680.033, 181 681.089, 181 682.012 C 181 682.935, 181.867 684.474, 182.926 685.433 C 183.985 686.391, 185.672 687.019, 186.676 686.827 C 187.679 686.636, 188.640 685.498, 188.812 684.298 C 189.038 682.715, 188.296 681.687, 186.112 680.558 C 184.455 679.701, 182.927 679, 182.716 679 C 182.506 679, 182.033 679.300, 181.667 679.667 M 280.389 680.980 C 279.228 681.449, 277.989 682.586, 277.636 683.507 C 277.283 684.427, 277.247 685.590, 277.556 686.090 C 277.865 686.591, 279.021 687, 280.125 687 C 281.228 687, 283.002 686.534, 284.066 685.965 C 285.130 685.395, 286 684.094, 286 683.072 C 286 682.050, 285.288 680.941, 284.418 680.607 C 283.548 680.273, 282.761 680.029, 282.668 680.063 C 282.576 680.098, 281.550 680.511, 280.389 680.980 M 266.743 686.627 C 265.234 687.417, 264 688.901, 264 689.925 C 264 690.949, 264.704 692.056, 265.563 692.386 C 266.423 692.716, 268.448 692.302, 270.063 691.467 C 271.679 690.632, 273 689.301, 273 688.510 C 273 687.718, 272.209 686.647, 271.243 686.130 C 270.047 685.490, 268.610 685.648, 266.743 686.627 M 194.310 687.515 C 192.604 688.762, 192.609 688.911, 194.418 690.910 C 195.459 692.059, 197.379 693, 198.686 693 C 199.993 693, 201.324 692.319, 201.643 691.487 C 201.963 690.655, 201.709 689.354, 201.079 688.595 C 200.450 687.837, 199.070 686.990, 198.014 686.714 C 196.957 686.438, 195.291 686.798, 194.310 687.515 M 252.250 691.031 C 251.012 691.529, 250 692.570, 250 693.345 C 250 694.121, 250.632 695.280, 251.404 695.921 C 252.196 696.577, 253.926 696.806, 255.369 696.444 C 256.776 696.090, 258.199 694.950, 258.529 693.910 C 258.859 692.869, 258.848 691.564, 258.506 691.009 C 258.163 690.454, 257.121 690.029, 256.191 690.063 C 255.261 690.098, 253.488 690.534, 252.250 691.031 M 207.362 692.500 C 207.045 693.325, 207.022 694.615, 207.311 695.368 C 207.600 696.120, 209.082 696.974, 210.604 697.265 C 212.127 697.556, 213.964 697.567, 214.687 697.290 C 215.409 697.013, 216 696.096, 216 695.253 C 216 694.410, 215.213 693.123, 214.250 692.392 C 213.287 691.661, 211.473 691.049, 210.219 691.032 C 208.964 691.014, 207.678 691.675, 207.362 692.500 M 222.200 694.200 C 221.540 694.860, 221 695.969, 221 696.665 C 221 697.360, 221.870 698.395, 222.934 698.965 C 223.998 699.534, 225.487 700, 226.243 700 C 226.999 700, 228.491 699.325, 229.559 698.499 C 231.464 697.027, 231.456 696.961, 229.139 694.999 C 227.841 693.900, 226.018 693, 225.089 693 C 224.160 693, 222.860 693.540, 222.200 694.200 M 237.152 693.885 C 236.410 694.355, 235.964 695.586, 236.160 696.620 C 236.400 697.887, 237.519 698.598, 239.593 698.801 C 241.455 698.983, 243.175 698.495, 243.947 697.564 C 244.649 696.718, 244.963 695.345, 244.643 694.513 C 244.315 693.658, 242.853 693.007, 241.281 693.015 C 239.752 693.024, 237.893 693.415, 237.152 693.885" stroke="none" fill="#040404" fill-rule="evenodd"/></svg>